<?xml version="1.0" encoding="utf-8"?>
<!-- Generator: Adobe Illustrator 24.0.1, SVG Export Plug-In . SVG Version: 6.00 Build 0)  -->
<svg version="1.1" id="Слой_1" xmlns:sketch="http://www.bohemiancoding.com/sketch/ns"
	 xmlns="http://www.w3.org/2000/svg" xmlns:xlink="http://www.w3.org/1999/xlink" x="0px" y="0px" viewBox="0 0 44 65"
	 style="enable-background:new 0 0 44 65;" xml:space="preserve">
<style type="text/css">
	.st0{fill:none;stroke:#333333;stroke-width:2;}
</style>
<title>Phone-call</title>
<desc>Created with Sketch.</desc>
<g id="Page-1" sketch:type="MSPage">
	<path id="Phone-call" sketch:type="MSShapeGroup" class="st0" d="M1.1,18.2c0,0,2.5,6.9,8.8,20c0,0,0,0,0,0.1
		c6.4,13.1,10.5,19,10.5,19c4.2,4.5,11.2,6.5,18.7,2.9c4.1-2,3.4-6.7-0.4-14.5l0,0c-3.4-7-7.2-7.2-9.7-5c-0.5,0.4-2.1,1.9-2.2,2.4
		c0,0-1.5,2.5-7.2-9.4c-5.7-11.8-3.4-11.2-3.4-11.2c0.4,0.1,2.6,0.4,3.2,0.2c3.2-0.7,5.8-4.1,2.1-11.7l0,0c-3.8-7.8-7-11.3-11.1-9.3
		C4.2,4.6,0.2,12.1,1.1,18.2L1.1,18.2z"/>
</g>
</svg>
