<?xml version="1.0" encoding="utf-8"?>
<!-- Generator: Adobe Illustrator 24.0.1, SVG Export Plug-In . SVG Version: 6.00 Build 0)  -->
<svg version="1.1" id="Capa_1" xmlns="http://www.w3.org/2000/svg" xmlns:xlink="http://www.w3.org/1999/xlink" x="0px" y="0px"
	 viewBox="0 0 490 490" style="enable-background:new 0 0 490 490;" xml:space="preserve">
<style type="text/css">
	.st0{fill:#333333;}
</style>
<g>
	<path class="st0" d="M490,268.7l-87.9-99.3h-81.5v-39.3h-97.2c-18.7-39.9-59.3-67.7-106.2-67.7C52.6,62.4,0,115,0,179.6
		c0,44.9,25.3,83.9,62.5,103.6v92.5H107c1.2,28.8,25,51.9,54.1,51.9s52.9-23.1,54.1-51.9h121.9c1.2,28.8,25,51.9,54.1,51.9
		s52.9-23.1,54.1-51.9H490V268.7z M20.4,179.6c0-53.4,43.4-96.8,96.8-96.8s96.8,43.4,96.8,96.8s-43.4,96.8-96.8,96.8
		C63.8,276.3,20.4,232.9,20.4,179.6z M161.1,407.2c-18.6,0-33.8-15.1-33.8-33.8s15.1-33.8,33.8-33.8s33.8,15.1,33.8,33.8
		S179.8,407.2,161.1,407.2z M300.2,355.3h-88c-7.5-21-27.5-36-51-36s-43.6,15.1-51,36H82.9v-63.6c10.9,3.3,22.4,5.1,34.3,5.1
		c64.6,0,117.2-52.6,117.2-117.2c0-10-1.3-19.8-3.6-29.1h69.5L300.2,355.3L300.2,355.3z M391.3,407.2c-18.6,0-33.8-15.1-33.8-33.8
		s15.1-33.8,33.8-33.8c18.6,0,33.8,15.1,33.8,33.8C425.1,392,409.9,407.2,391.3,407.2z M469.6,355.3h-27.2c-7.5-21-27.5-36-51-36
		s-43.6,15.1-51,36h-19.7V189.8H393l76.7,86.6L469.6,355.3L469.6,355.3z"/>
	<polygon class="st0" points="163,194.4 127.4,173.7 127.4,105.6 107,105.6 107,185.4 152.7,212.1 	"/>
</g>
</svg>
