<?xml version="1.0" encoding="utf-8"?>
<!-- Generator: Adobe Illustrator 24.0.1, SVG Export Plug-In . SVG Version: 6.00 Build 0)  -->
<svg version="1.1" id="Layer_2" xmlns="http://www.w3.org/2000/svg" xmlns:xlink="http://www.w3.org/1999/xlink" x="0px" y="0px"
	 viewBox="0 0 140 140" style="enable-background:new 0 0 140 140;" xml:space="preserve">
<style type="text/css">
	.st0{fill:#FFFCF3;stroke:#000000;stroke-width:0.1891;stroke-miterlimit:10;}
</style>
<g>
	<g>
		<path class="st0" d="M108.7,58.8l-1.1,2.8c-1.5-1.7-3.8-2.8-7.1-2.8H65.1c-4.1,0-6.2,0.9-7.1,2.8c-1.5-1.7-3.8-2.8-7.1-2.8H40.4
			l-3.4,8.9h15.5c1.8,0,1.3,2.4-0.6,2.4H36l-4.4,11.1h8.8l2-5.3h10c-0.4,2.2,0.8,5.3,7.9,5.3h9.6c5.6,0,7.9-3.3,8.7-5.3l3.2-8.2
			h17.8c1.8,0,1.3,2.4-0.6,2.4H83.7l-0.6,1.6l-3.7,9.5h8.8l2-5.2h5.4l2,5.2h8.8l-2.1-5.4c3.2-1.4,5.1-4.7,5.2-8.1h5.8
			c0.6,0,0.6,0.4,0,0.9l-2,1.5l-4.3,11.1h8.8l5.2-13.5h5.8l3.5-8.9H108.7z M73.1,69l-1.2,3.1c-0.2,0.6-0.7,0.8-1.6,0.8h-8.7
			c-0.9,0-0.7-0.7-0.4-1.3l1.2-3.1c0.2-0.6,0.7-0.8,1.6-0.8h8.7C73.6,67.7,73.3,68.4,73.1,69z"/>
	</g>
	<g>
		<polygon class="st0" points="130.6,67.7 136.4,67.7 139.9,58.8 134.1,58.8 		"/>
	</g>
	<g>
		<path class="st0" d="M32.8,58.8c-11.4,0-13.3,13.5-21.7,13.5l-3.5,8.9c20.1,0,17.3-13.4,27.6-13.4l3.6-8.9H32.8z"/>
		<polygon class="st0" points="3.6,72.3 0.1,81.2 5.9,81.2 9.4,72.3 		"/>
	</g>
</g>
</svg>
